<svg width="52" height="52" viewBox="0 0 52 52" fill="none" xmlns="http://www.w3.org/2000/svg">
<path d="M41.4781 10.542C38.1774 7.25137 34.6633 9.38418 32.4594 11.5779L11.6594 32.3779C9.45548 34.5818 7.15001 37.9334 10.6234 41.3967C14.0867 44.86 17.4281 42.5545 19.632 40.3506L40.432 19.5506C42.6359 17.3568 44.7688 13.8326 41.4781 10.542ZM21.6024 9.68887L26.0102 14.0967L30.4891 9.60762C30.7938 9.30293 31.0984 9.01855 31.4133 8.75449C30.9461 6.38809 29.5953 4.24512 26 4.24512C22.4047 4.24512 21.0539 6.39824 20.5969 8.76465C20.932 9.05918 21.2672 9.35371 21.6024 9.68887ZM30.4891 42.4022L26.0102 37.9232L21.6024 42.3209C21.2672 42.6561 20.9422 42.9709 20.607 43.2553C21.1149 45.6725 22.5367 47.8764 26 47.8764C29.4734 47.8764 30.9055 45.6522 31.4031 43.235C31.0984 42.9709 30.7938 42.7068 30.4891 42.4022ZM19.7336 20.3631H11.243C8.12501 20.3631 4.13361 21.3482 4.13361 25.9998C4.13361 29.4834 6.35782 30.9053 8.78517 31.4029C9.06954 31.0779 19.7336 20.3631 19.7336 20.3631ZM43.2453 20.5967C42.9813 20.9014 32.2867 31.6467 32.2867 31.6467H40.6555C43.7734 31.6467 47.7649 30.9053 47.7649 25.9998C47.7649 22.4146 45.6219 21.0639 43.2453 20.5967ZM22.5164 17.5803L24.0297 16.067L19.632 11.6592C17.4281 9.45527 14.0867 7.1498 10.6133 10.6232C8.07423 13.1623 8.64298 15.6404 9.98361 17.6412C10.4 17.6107 22.5164 17.5803 22.5164 17.5803ZM29.4938 34.4295L27.9703 35.9529L32.4594 40.4318C34.6633 42.6357 38.1774 44.7686 41.468 41.4779C43.9258 39.0201 43.3672 36.4303 42.0063 34.3686C41.5695 34.399 29.4938 34.4295 29.4938 34.4295Z" fill="white"/>
</svg>
