<svg width="34" height="34" viewBox="0 0 34 34" fill="none" xmlns="http://www.w3.org/2000/svg">
<g clip-path="url(#clip0_15_425)">
<path d="M10.9504 1.63363C10.4391 0.39847 9.09102 -0.258952 7.80273 0.0930012L1.95898 1.68675C0.803516 2.0055 0 3.05472 0 4.25003C0 20.6789 13.3211 34 29.75 34C30.9453 34 31.9945 33.1965 32.3133 32.041L33.907 26.1973C34.259 24.909 33.6016 23.561 32.3664 23.0496L25.9914 20.3934C24.909 19.9418 23.6539 20.2539 22.9168 21.1637L20.234 24.4375C15.559 22.2262 11.7738 18.441 9.5625 13.766L12.8363 11.0899C13.7461 10.3461 14.0582 9.09769 13.6066 8.01527L10.9504 1.64027V1.63363Z" fill="white"/>
</g>
<defs>
<clipPath id="clip0_15_425">
<rect width="34" height="34" fill="white"/>
</clipPath>
</defs>
</svg>
