<svg width="385" height="251" viewBox="0 0 385 251" fill="none" xmlns="http://www.w3.org/2000/svg">
<path d="M210.291 245.717C200.674 251.487 186.249 251.487 176.633 245.717L7.37942 144.742C-2.23723 138.972 -2.23723 130.317 7.37942 124.547L175.671 23.5719C185.288 17.8019 199.713 17.8019 209.329 23.5719L377.621 124.547C387.237 130.317 387.237 138.972 377.621 144.742L210.291 245.717Z" fill="#D34D3C"/>
<path d="M177.662 224.768L177.657 224.766L8.40841 123.794C8.40763 123.793 8.40685 123.793 8.40606 123.792C3.92645 121.104 2.16693 118.044 2.16693 115.411C2.16693 112.778 3.92707 109.717 8.40841 107.029L176.7 6.05371C185.683 0.663737 199.317 0.663737 208.3 6.05371L376.592 107.029C381.073 109.717 382.833 112.778 382.833 115.411C382.833 118.044 381.073 121.105 376.592 123.794L376.587 123.796L209.262 224.768C209.261 224.769 209.261 224.769 209.26 224.769C200.277 230.158 186.644 230.158 177.662 224.768Z" fill="#FF5943" stroke="#D34D3C" stroke-width="4"/>
</svg>
