<svg width="385" height="250" viewBox="0 0 385 250" fill="none" xmlns="http://www.w3.org/2000/svg">
<path d="M177.495 243.757L177.49 243.755L8.24148 142.782C8.24064 142.782 8.23981 142.781 8.23897 142.781C3.75948 140.092 2 137.032 2 134.4C2 131.767 3.76013 128.706 8.24148 126.017L176.533 25.0425C185.516 19.6525 199.15 19.6525 208.133 25.0425L376.425 126.017C380.906 128.706 382.666 131.767 382.666 134.4C382.666 137.033 380.906 140.094 376.425 142.782L376.42 142.785L209.095 243.757C209.094 243.758 209.094 243.758 209.093 243.758C200.11 249.147 186.477 249.147 177.495 243.757Z" fill="white" stroke="#FF5943" stroke-width="4"/>
<path d="M177.495 224.757L177.49 224.755L8.24148 123.782C8.2407 123.782 8.23991 123.781 8.23913 123.781C3.75952 121.092 2 118.032 2 115.4C2 112.767 3.76014 109.706 8.24148 107.017L176.533 6.04248C185.516 0.652507 199.15 0.652507 208.133 6.04248L376.425 107.017C380.906 109.706 382.666 112.767 382.666 115.4C382.666 118.033 380.906 121.094 376.425 123.782L376.42 123.785L209.095 224.757C209.094 224.758 209.094 224.758 209.093 224.758C200.11 230.147 186.477 230.147 177.495 224.757Z" fill="#FF5943" stroke="#FF5943" stroke-width="4"/>
</svg>
