<svg width="38" height="38" viewBox="0 0 38 38" fill="none" xmlns="http://www.w3.org/2000/svg">
<path d="M35.8559 0.0371094L32.6949 34.2753L18.9998 37.9627L5.30441 34.2753L2.1441 0.0371094H35.8559ZM29.4864 6.9989H18.9875H8.30255L8.81355 11.1335H18.9875H19.5589L18.9875 11.3713L9.18539 15.4538L9.51046 19.4953L18.9875 19.526L24.0668 19.5421L23.7417 24.9308L18.9874 26.2694V26.2651L18.9484 26.276L14.3569 25.1169L14.0783 21.7718H14.0631H9.8043H9.7893L10.3468 28.2294L18.9875 30.7847V30.7801L19.0031 30.7847L27.5976 28.2759L28.7124 15.4538H18.9875H18.9636L18.9875 15.4434L29.0687 11.1335L29.4864 6.9989Z" fill="white"/>
</svg>
