<svg width="436" height="436" viewBox="0 0 436 436" fill="none" xmlns="http://www.w3.org/2000/svg">
<path fill-rule="evenodd" clip-rule="evenodd" d="M436 218C436 338.398 338.398 436 218 436C97.6019 436 0 338.398 0 218C0 97.6019 97.6019 0 218 0C338.398 0 436 97.6019 436 218ZM94.0953 203.805C92.8931 204.371 91.446 205.181 89.8239 206.178C89.1188 206.64 88.5054 207.058 87.9929 207.426L88.0282 207.312C76.3251 214.875 57.7999 229.991 53.6735 235.069C48.525 241.17 47.0001 231.638 52.3386 215.815C56.5323 203.042 67.2111 185.694 85.1333 170.824C95.6193 162.246 118.691 149.855 132.799 142.61C135.566 141.134 170.242 126.47 202.353 118.436C204.898 116.138 207.316 115.124 209.067 114.585C211.546 113.632 214.596 113.632 215.741 114.204C217.197 113.598 218.345 112.836 219.576 112.019C220.279 111.552 221.01 111.067 221.842 110.582C224.13 109.248 228.324 111.155 229.278 111.727C230.129 111.226 230.9 110.674 231.634 110.148L231.636 110.146C233.699 108.668 235.467 107.401 237.858 108.104C238.509 108.281 239.143 108.473 239.759 108.678C240.312 108.534 240.855 108.398 241.374 108.269C243.719 107.683 245.568 107.222 245.676 106.579C246.222 104.085 246.671 100.986 247.013 98.1932L247.01 98.191L247.028 98.0664C247.127 97.251 247.217 96.4632 247.297 95.7256C246.49 91.9805 246.057 87.1337 246.057 87.1337C245.353 82.6772 245.515 75.5505 246.099 70.1933C246.113 69.4023 246.18 68.847 246.305 68.5107C246.651 65.9699 247.097 64.0303 247.582 63.3038C252.349 56.8214 277.517 56.0596 282.856 63.6847C285.144 67.1158 284.953 75.1228 284.572 80.2705C284.39 82.7327 283.989 86.5478 283.6 90.2544C283.289 93.2149 282.985 96.1063 282.806 98.184C282.984 101.801 283.137 105.87 283.237 108.676L283.252 109.098L283.267 109.562L283.269 109.599C283.353 112.129 283.388 113.169 283.914 113.801C284.171 114.11 284.544 114.321 285.098 114.56C286.221 114.312 287.366 114.287 288.486 114.435C290.017 114.615 291.706 115.149 293.505 116.234C294.215 116.163 294.956 116.212 295.631 116.493C298.109 117.255 299.443 120.496 299.443 120.496C303.144 119.21 303.993 120.23 305.428 121.955C305.694 122.274 305.98 122.617 306.308 122.975C310.431 122.115 311.303 123.423 313.527 126.758C313.748 127.09 313.983 127.441 314.235 127.813C316.559 128.642 318.898 129.941 320.989 131.934C329.188 139.941 328.615 149.854 326.137 155.954C328.234 158.433 332.048 165.295 329.188 173.493C341.549 183.98 336.432 199.986 325.584 210.849C325.583 210.98 325.577 211.11 325.565 211.239C325.565 211.239 323.259 218.641 318.745 223.667C317.552 225.037 316.203 226.231 314.697 227.063C314.697 227.063 310.25 228.651 301.358 224.437C303.867 235.274 309.667 266.154 298.3 280.633C298.3 280.633 300.397 288.83 295.631 297.599C295.347 299.015 295.038 300.378 294.731 301.728C294.655 302.061 294.58 302.393 294.505 302.725C294.426 303.077 294.347 303.428 294.27 303.781C296.866 303.271 298.81 303.127 297.918 308.656C297.705 309.971 297.399 311.542 297.048 313.284C297.08 313.687 296.942 314.139 296.808 314.47L296.745 314.781L296.745 314.782L296.744 314.786L296.743 314.789C295.551 320.669 294.051 328.068 293.914 334.201C293.724 342.78 293.724 352.693 294.296 354.409C294.692 355.598 296.83 356.88 299.121 358.253C300.135 358.86 301.178 359.485 302.113 360.128C310.106 365.892 316.838 368.415 322.185 370.42C324.619 371.332 326.767 372.137 328.615 373.091C334.048 375.896 333.199 381.116 325.326 383.273L324.993 383.577L324.46 383.491C324.022 383.592 323.564 383.685 323.086 383.767C318.183 384.701 311.564 383.919 305.244 383.173C301.241 382.7 297.358 382.242 294.105 382.242C292.76 382.242 291.151 382.266 289.377 382.293C280.261 382.432 266.775 382.637 262.328 379.93C261.461 379.835 260.928 379.765 260.928 379.765L260.872 378.764C256.726 374.64 258.831 368.325 258.831 368.325C258.865 368.232 258.9 368.136 258.936 368.038L259.004 367.852C259.078 367.651 259.156 367.441 259.238 367.222C260.935 362.647 264.078 354.179 263.025 347.165C261.885 339.567 260.367 335.376 257.527 328.368C257.368 328.319 257.306 328.291 257.306 328.291L257.284 327.746C254.535 320.385 252.606 303.867 255.209 302.937C256.875 302.342 257.204 302.489 258.05 302.87C258.206 302.94 258.38 303.018 258.583 303.101C259.629 299.194 262.202 295.213 269.128 289.782C269.395 285.916 268.215 282.119 266.642 277.054L266.641 277.051L266.639 277.043C266.169 275.53 265.664 273.905 265.153 272.132C258.796 283.372 249.869 288.069 249.869 288.069C249.56 292.24 247.373 294.783 246.149 296.207L246.148 296.208C245.862 296.54 245.628 296.812 245.484 297.028C245.872 301.036 245.646 304.693 245.222 307.523L245.192 307.88C244.899 311.423 244.401 317.427 238.556 326.961C236.714 331.481 234.902 335.876 234.046 337.823C232.082 342.287 232.124 350.594 232.138 353.198C232.139 353.374 232.139 353.525 232.139 353.646C232.139 355.553 231.377 359.365 230.804 359.556C230.597 359.624 230.79 360.318 231.066 361.311C231.552 363.06 232.297 365.738 231.566 367.563C231.018 369.48 232.143 373.562 232.891 376.275L232.891 376.276C233.184 377.338 233.419 378.191 233.472 378.62C235.188 388.914 233.663 389.677 222.986 391.012C212.308 392.346 204.491 388.342 201.631 385.674C198.771 383.004 198.2 377.095 201.059 371.757C201.663 370.551 202.267 369.627 202.837 368.754C203.889 367.144 204.828 365.707 205.446 362.988C206.232 359.686 206.889 358.459 207.522 357.275C207.657 357.023 207.79 356.774 207.924 356.506C208.686 355.171 208.878 353.836 209.068 344.495C209.119 342.012 209.142 338.948 209.168 335.65V335.649V335.648V335.646V335.645V335.644V335.643V335.642V335.641V335.64V335.639V335.638V335.637V335.635V335.634V335.633V335.632V335.631V335.63V335.629V335.628V335.627V335.625V335.624V335.623V335.622V335.621V335.62V335.618V335.617V335.616V335.614V335.613C209.238 326.513 209.322 315.631 210.021 310.181C210.072 309.778 210.212 309.427 210.432 309.124C210.866 305.943 211.56 303.014 212.6 300.67C213.181 298.59 213.941 296.762 214.827 295.092C212.724 294.247 210.421 292.754 208.303 289.974C198.961 277.391 190 272.244 165.022 271.863C140.997 271.482 120.406 259.662 117.355 234.116C115.489 217.509 112.708 205.285 104.366 197.624C99.9562 200.442 97.3351 202.089 97.3351 202.089L94.0953 203.805ZM169.408 267.477C181.67 267.077 190.799 269.438 197.914 273.697C190.788 269.49 181.636 267.156 169.408 267.478C136.803 268.24 123.837 254.896 121.359 229.351C120.062 215.829 116.425 202.667 109.049 194.936L109.093 194.912C116.39 202.592 120.037 215.739 121.353 229.079L121.36 229.16L121.361 229.164C123.84 254.707 136.616 268.051 169.409 267.287C170.129 267.271 170.838 267.264 171.537 267.266C170.819 267.361 170.109 267.432 169.408 267.477ZM303.256 200.754C301.674 200.671 300.092 201.643 298.812 202.763C298.972 201.105 299.113 199.405 299.214 198.184L299.215 198.171L299.253 197.704C299.336 191.738 300.5 186.493 302.008 182.046C303.06 182.971 304.495 183.694 306.499 184.168C303.384 190.647 306.701 194.195 309.268 196.939C310.446 198.199 311.466 199.29 311.633 200.417C310.094 201.313 307.86 201.123 305.399 200.913C304.699 200.853 303.981 200.792 303.256 200.754Z" fill="white"/>
</svg>
