<svg width="40" height="40" viewBox="0 0 40 40" fill="none" xmlns="http://www.w3.org/2000/svg">
<path d="M33.4694 2.85718H6.53061C4.50255 2.85718 2.85714 4.50258 2.85714 6.53064V33.4694C2.85714 35.4975 4.50255 37.1429 6.53061 37.1429H33.4694C35.4974 37.1429 37.1429 35.4975 37.1429 33.4694V6.53064C37.1429 4.50258 35.4974 2.85718 33.4694 2.85718ZM21.5153 29.597C21.5153 32.9337 19.5561 34.4567 16.7015 34.4567C14.1224 34.4567 12.6301 33.125 11.8648 31.5102L14.4898 29.9261C14.9949 30.8215 15.4541 31.5791 16.5638 31.5791C17.6199 31.5791 18.2934 31.1659 18.2934 29.5511V18.5995H21.5153V29.597ZM29.1378 34.4567C26.1454 34.4567 24.2092 33.0332 23.2679 31.1659L25.8929 29.6506C26.5816 30.7756 27.4847 31.6097 29.0689 31.6097C30.4005 31.6097 31.2577 30.9439 31.2577 30.0179C31.2577 28.9159 30.3852 28.5256 28.9082 27.875L28.1046 27.5306C25.7781 26.5434 24.2398 25.296 24.2398 22.671C24.2398 20.2526 26.0842 18.4159 28.9541 18.4159C31.0051 18.4159 32.4745 19.1276 33.5306 20.9949L31.0204 22.6021C30.4694 21.6148 29.8724 21.2245 28.9464 21.2245C28.0051 21.2245 27.4082 21.8215 27.4082 22.6021C27.4082 23.5664 28.0051 23.9567 29.3903 24.5613L30.1939 24.9056C32.9337 26.0766 34.4719 27.2781 34.4719 29.972C34.4719 32.8648 32.1913 34.4567 29.1378 34.4567Z" fill="white"/>
</svg>
