<svg width="607" height="607" viewBox="0 0 607 607" fill="none" xmlns="http://www.w3.org/2000/svg">
<path fill-rule="evenodd" clip-rule="evenodd" d="M0 8C0 3.58173 3.58179 0 8 0H599C603.418 0 607 3.58173 607 8V599C607 603.418 603.418 607 599 607H8C3.58179 607 0 603.418 0 599V8ZM450.038 307.365C431.426 308.842 415.817 315.539 404.196 327.061C392.231 338.928 386.519 353.404 386.519 371.77C386.519 399.246 397.795 418.449 422.956 433.664C429.357 437.505 438.073 441.691 453.14 448.19C473.673 457.004 481.305 461.189 486.18 466.409C492.187 472.859 493.861 483.15 490.07 491.029C489.331 492.555 487.411 495.115 485.688 496.839C479.877 502.698 470.719 505.8 459.344 505.8C440.141 505.8 425.812 497.922 414.29 480.885C412.714 478.62 411.287 476.749 411.09 476.749C410.646 476.749 373.175 498.365 372.387 499.104C371.895 499.547 372.289 500.581 374.209 503.732C389.178 528.943 412.567 543.715 444.178 547.949C452.451 549.082 467.961 549.033 475.889 547.949C495.781 545.143 510.701 538.545 522.272 527.318C534.582 515.451 540.639 500.089 540.639 480.836C540.639 468.526 538.62 458.924 534.041 449.421C530.889 442.922 527.738 438.539 522.322 433.024C511.932 422.487 498.49 414.51 471.654 402.988C451.367 394.273 444.573 390.531 440.092 385.754C435.808 381.175 433.986 375.808 434.38 369.111C434.725 363.794 436.202 360.199 439.451 356.703C444.129 351.631 449.546 349.514 457.916 349.563C467.42 349.563 473.574 352.025 479.828 358.328C482.044 360.495 484.9 363.991 486.229 366.108C487.756 368.521 488.888 369.85 489.282 369.702C490.562 369.161 526.359 346.018 526.359 345.673C526.359 345.476 524.537 342.621 522.322 339.272C517.595 332.182 509.076 323.319 503.217 319.429C492.384 312.24 480.813 308.547 465.549 307.414C458.064 306.823 457.079 306.823 450.038 307.365ZM296.608 483.889L296.755 396.833L296.952 309.827H321.031H345.158V397.129C345.158 455.034 344.961 485.809 344.665 488.567C341.268 515.796 328.416 534.113 306.505 542.976C288.237 550.313 263.322 550.904 243.921 544.453C225.555 538.348 210.291 525.053 201.477 507.475L200 504.52L219.449 492.703C230.134 486.252 239.047 480.885 239.244 480.787C239.391 480.737 240.671 482.658 242.099 485.021C250.913 500.089 258.496 505.456 271.151 505.406C280.014 505.357 285.332 503.634 289.468 499.498C292.422 496.543 294.096 493.343 295.524 487.976L296.608 483.889Z" fill="white"/>
</svg>
