<svg width="56" height="56" viewBox="0 0 56 56" fill="none" xmlns="http://www.w3.org/2000/svg">
<path d="M11.0841 19.7661C11.6433 19.5751 12.2066 19.3972 12.7739 19.2324C12.6798 18.8496 12.5931 18.4646 12.5136 18.0774C11.2339 11.8539 12.0706 6.84019 14.9264 5.18973C17.6608 3.60598 22.1452 5.25644 26.6689 9.20269C27.1137 9.59207 27.5494 9.99311 27.9759 10.4058C28.2603 10.1317 28.552 9.86332 28.8509 9.60082C33.5923 5.38113 38.3447 3.60379 41.1972 5.25973C43.9316 6.84676 44.7442 11.5597 43.5925 17.4583C43.4773 18.0417 43.3479 18.6224 43.2042 19.2007C43.8769 19.3921 44.5266 19.5966 45.1478 19.8132C50.6997 21.7546 54.25 24.7985 54.25 27.955C54.25 31.2166 50.4394 34.4869 44.6502 36.4699C44.1806 36.6296 43.7066 36.778 43.2283 36.915C43.3836 37.5341 43.521 38.1601 43.6406 38.793C44.7344 44.5899 43.8813 49.1913 41.1523 50.7685C38.3337 52.3971 33.6055 50.7236 28.9964 46.6877C28.6318 46.3683 28.2672 46.0311 27.9027 45.676C27.4418 46.1215 26.9679 46.5539 26.4808 46.9732C22.0183 50.821 17.6116 52.3752 14.887 50.7936C12.0706 49.1596 11.1552 44.2158 12.3441 38.2013C12.4352 37.7419 12.5402 37.2731 12.6591 36.7947C12.3266 36.6963 12.001 36.5946 11.6823 36.4896C5.66672 34.4913 1.74781 31.2603 1.74781 27.9583C1.75 24.7864 5.41406 21.7229 11.0841 19.7661ZM25.1934 10.898C21.3183 7.51723 17.6958 6.18285 16.0442 7.1366C14.2866 8.15269 13.603 12.2499 14.7077 17.6235C14.7806 17.9735 14.8593 18.3224 14.9439 18.6702C17.2565 18.1442 19.6016 17.7729 21.9636 17.5589C23.316 15.6108 24.7985 13.7564 26.4009 12.0082C26.0086 11.6275 25.6069 11.2575 25.1956 10.898H25.1934ZM38.7483 30.6522C38.2736 31.571 37.7774 32.4784 37.2597 33.3746C36.7325 34.2889 36.1831 35.1898 35.6114 36.0772C37.2366 35.9005 38.8517 35.6402 40.4502 35.2974C39.9864 33.7968 39.4155 32.2382 38.7483 30.6522ZM38.7483 25.3661C39.4045 23.8141 39.9602 22.2872 40.4163 20.8128C38.9178 20.4771 37.3209 20.2025 35.6562 19.9947C36.2141 20.8653 36.7507 21.7487 37.2663 22.6449C37.7818 23.541 38.2769 24.4481 38.7516 25.3661H38.7483ZM37.5561 28.0097C36.8648 26.5682 36.1204 25.1543 35.3227 23.7682C34.5257 22.3827 33.6773 21.029 32.7775 19.7071C31.2156 19.5889 29.6144 19.5266 27.9967 19.5266C26.3791 19.5266 24.768 19.5889 23.2072 19.7082C22.3169 21.0272 21.4736 22.3762 20.6773 23.755C19.8811 25.1339 19.1268 26.5412 18.4144 27.9769C19.1173 29.4236 19.8698 30.8433 20.6719 32.236C21.4674 33.6214 22.3059 34.9791 23.1875 36.3091C24.7461 36.4185 26.3594 36.4786 28 36.4786C29.6406 36.4786 31.2233 36.4272 32.7534 36.3277C33.6598 35.0013 34.5151 33.6418 35.3194 32.2491C36.1236 30.8564 36.8703 29.4433 37.5594 28.0097H37.5561ZM18.7305 33.3593C18.2018 32.442 17.6943 31.5126 17.208 30.5713C16.5413 32.0829 15.9528 33.6279 15.4448 35.2C17.0621 35.5642 18.6973 35.8435 20.3438 36.0368C19.7881 35.1552 19.2504 34.2627 18.7305 33.3593ZM17.2298 25.3672C17.714 24.4448 18.2175 23.5334 18.7403 22.6328C19.2507 21.7447 19.7827 20.8675 20.3361 20.0013C18.6616 20.2135 17.0548 20.4957 15.5488 20.8402C16.033 22.3764 16.5941 23.8873 17.2298 25.3672ZM27.9748 13.6149C26.8827 14.8083 25.8514 16.056 24.885 17.3533C26.9522 17.2549 29.0208 17.2549 31.0909 17.3533C30.0705 16.0036 29.0259 14.7513 27.9748 13.6149ZM40.0684 7.20332C38.3119 6.18394 34.428 7.64082 30.3341 11.2797C30.0727 11.5127 29.8091 11.7566 29.5466 12.0093C31.1573 13.7572 32.6502 15.6101 34.0156 17.5557C36.3724 17.768 38.7128 18.1334 41.0222 18.6494C41.1556 18.1127 41.2759 17.5724 41.3831 17.0285C42.373 11.9721 41.7178 8.16035 40.0684 7.20332ZM42.6289 34.7494C43.0664 34.6247 43.4984 34.4895 43.925 34.3436C46.4844 33.4686 48.5986 32.3268 50.05 31.0832C51.3494 29.9686 52.0078 28.8563 52.0078 27.955C52.0078 26.0399 49.1575 23.5964 44.4041 21.9394C43.8069 21.7316 43.2046 21.5417 42.5972 21.3696C41.8912 23.6383 41.0362 25.858 40.0378 28.0141C41.0481 30.2 41.9137 32.45 42.6289 34.7494ZM30.4741 44.9946C32.5117 46.7796 34.5527 48.045 36.3519 48.6827C37.9684 49.2547 39.2558 49.2711 40.0334 48.8216C41.6894 47.8646 42.3784 44.1688 41.4389 39.2119C41.3273 38.6286 41.1997 38.0452 41.0561 37.4619C38.7236 37.9644 36.3597 38.3075 33.9806 38.4889C32.6019 40.4447 31.0966 42.308 29.4744 44.0671C29.8003 44.3875 30.1339 44.696 30.4741 44.9946ZM27.9125 42.4549C28.9756 41.3054 30.0366 40.0333 31.0713 38.6661C30.0657 38.7055 29.042 38.7252 28 38.7252C26.9303 38.7252 25.8716 38.7022 24.8281 38.6552C25.791 39.9733 26.8205 41.2415 27.9125 42.4549ZM14.2931 45.5819C14.6059 47.2707 15.2348 48.3972 16.0125 48.8479C17.6673 49.8082 21.2056 48.5602 25.0206 45.2691C25.4581 44.8929 25.8956 44.4893 26.3408 44.066C24.7502 42.3001 23.2801 40.4292 21.9406 38.466C19.5484 38.2633 17.173 37.896 14.8312 37.3668C14.7241 37.7999 14.6293 38.2243 14.5469 38.6399C14.0208 41.2977 13.9453 43.7018 14.2931 45.5819ZM12.39 34.3557C12.6766 34.4508 12.9719 34.5427 13.2716 34.6324C14.0058 32.3529 14.8942 30.126 15.9305 27.9671C14.9331 25.8369 14.0795 23.6423 13.3755 21.398C12.8384 21.5544 12.3167 21.7185 11.8147 21.8924C6.95625 23.568 3.99219 26.0486 3.99219 27.955C3.99219 29.9894 7.19359 32.6297 12.39 34.3557Z" fill="white"/>
<path d="M28 32.6538C27.0692 32.6568 26.1584 32.3836 25.3829 31.8686C24.6075 31.3537 24.0023 30.6202 23.644 29.7611C23.2857 28.902 23.1903 27.9559 23.3701 27.0425C23.5498 26.1292 23.9965 25.2898 24.6537 24.6305C25.3108 23.9712 26.1488 23.5218 27.0615 23.3391C27.9742 23.1563 28.9207 23.2486 29.7809 23.6041C30.6412 23.9596 31.3766 24.5624 31.8941 25.3362C32.4116 26.1099 32.6878 27.0198 32.6878 27.9507C32.6891 28.5674 32.5688 29.1783 32.3339 29.7485C32.099 30.3187 31.754 30.837 31.3186 31.2737C30.8832 31.7105 30.3661 32.0572 29.7966 32.294C29.2272 32.5308 28.6167 32.6531 28 32.6538Z" fill="white"/>
</svg>
